Coordinates
version=1
nRows=13
nColumns=24
inDegrees=yes

Units are S.I. units (second, meters, Newtons, ...)
If the header above contains a line with 'inDegrees', this indicates whether rotational values are in degrees (yes) or radians (no).

endheader
time	pelvis_tilt	pelvis_list	pelvis_rotation	pelvis_tx	pelvis_ty	pelvis_tz	hip_flexion_r	hip_adduction_r	hip_rotation_r	knee_angle_r	ankle_angle_r	subtalar_angle_r	mtp_angle_r	hip_flexion_l	hip_adduction_l	hip_rotation_l	knee_angle_l	ankle_angle_l	subtalar_angle_l	mtp_angle_l	lumbar_extension	lumbar_bending	lumbar_rotation
1.0	0.9745044377484775	-0.6797520781032675	1.446487292442417	0.41664688361759783	-0.23528326902458496	-0.22923463546918282	-2.1638369980628704	0.3080865186279069	-5.114395321294459	-12.100412430655748	8.402861642745584	-1.629486564308611	-1.4969510558009336	18.28851363355906	-5.52282748000543	-4.968763019284846	-57.76176610398033	-2.7305450205314274	-2.9309919166953065	-0.008280243404005534	-17.042851629317937	-0.044818844088161836	-0.6939079944488658
1.017	3.376197491112495	0.5197948507950452	-1.502804728434904	1.9927288842964577	-0.22961556688747087	3.7179422126532935	-5.056152803743032	6.845588290381018	-2.999273508742722	-10.471607583533489	12.1047337113048	-0.318957611229487	-0.3756455307485923	17.65487110039237	-0.07774480661640659	-4.784819917104791	-53.55757736938851	2.671692853152063	-0.6010361202989406	2.701208970964383	-16.86425711817076	-0.5432670836735302	-0.3290182561373156
1.033	4.505751554427312	-0.2656034108606433	2.230921943514354	-0.06903869304082	1.480455494098442	-2.005556610515951	-7.370351206478171	4.721613370301023	-3.8648549430878623	-9.654109867287973	8.891933788158289	0.005171075562200972	1.1543740731518501	19.97322434768186	-2.5585803741340514	-6.6823934226912085	-51.78652918737649	1.221432550055192	0.29275985793790893	-1.114506063931385	-16.011325597758834	3.827512903808827	4.086769543675032
1.05	5.157495011901924	-0.4133183859379016	1.4653674846635205	-1.9546201206809841	1.5436460356255168	0.1834907070037195	-9.822729796840077	6.7750053972596564	0.1385739491495115	-10.668798306594493	7.310363226133995	-2.6142109277393537	-2.1933146070595844	19.187347852493776	-4.188514642836847	-3.783484967518641	-42.87028038553301	-2.4421847306038638	0.26657320030754655	1.3110468670006898	-15.062784026313688	3.961567595423027	3.024742905138038
1.067	5.387783242719776	0.22523086321018182	-2.5613352959119506	0.0843734312597777	4.595440412525567	2.990710662708159	-6.8254963948047855	3.783112143765451	1.1469639972870356	-6.879093533428512	10.680482022816372	0.8730741692403698	-0.736310011145096	18.117640947293225	-7.171102469597061	-5.936115359308078	-35.39581849543751	2.523310214827716	2.4569512114864094	0.277328125973914	-15.921624908726509	1.3944368527218853	1.9795673887379208
1.083	4.531000837336238	-0.8011513614424817	-3.6514500327116974	-1.8001414502995607	1.9577850225589237	-1.6384749238306744	-9.877249516464671	2.769176210585525	-5.015046827332121	-10.05406603846667	9.351150514977675	-0.8411023294977454	-0.30301547664876616	24.58880576388477	-4.516046761327555	-10.08991713125178	-30.367991368073813	0.04159935127540781	-2.1147536051481812	-0.17630380492005887	-16.710148368249122	1.4338592274357698	2.3018997026593433
1.1	3.3953286423408873	0.49243455342208886	-2.1782613304595047	-1.6569761450332745	2.062802354522129	-3.7219302190067824	-11.641008173587418	3.301046814063425	-2.8915688919641047	-4.03604441754419	14.818793888934241	-1.8322521898898267	-3.532478555894204	23.227947300823857	-6.380426180661709	-11.187219872288345	-26.492532602019143	-2.1675147153576035	0.5983863664767515	3.2188370873688417	-15.279187082194214	3.024472491040547	7.433848955353963
1.117	5.842791724257047	-4.927520780524045	0.933235493822687	4.7543093828666265	-1.311513105414304	-0.8970335919104802	-7.814621477928013	8.115665598044188	-3.7953791056286312	-8.038250074577483	12.06813609086924	-1.2199667448358762	2.5346624448052464	20.792852041450622	-8.198581992397695	-13.220941014331926	-22.311695344779938	0.2624637885029468	0.714066642715457	0.2534770707189242	-15.643767369230176	2.068425406556049	2.719438161650762
1.133	3.9153819350369172	-5.520686398000542	-3.012880940370489	-2.3577137636301844	2.8338980153935838	2.8285672641483632	-12.345348185432085	7.753109667398029	-0.3189007314450788	-4.145310225638815	13.91370649553904	1.4704770496934292	0.34343757976938954	19.045974827516496	-4.619242187138973	-12.403602241336875	-16.074960233013897	0.21094933023840623	-0.27890830082204926	1.8402639611060627	-12.035057880907097	0.5522031870652855	-0.6025985729978998
1.15	8.101824573344699	-6.929564981689888	-1.2365816695250442	1.0139521600234636	3.122944337581546	1.001953267699424	-17.114172650178826	4.073627498590306	1.3862821678653943	-5.610044776703897	12.699442793978282	-1.4493124490570188	4.000927755100896	19.198615810657383	-5.362291384509919	-10.942705852995255	-9.561077585626954	-6.842153764304509	3.8125117640227035	2.146540379542541	-20.459307790605603	5.650067276560595	3.888824085885416
1.167	5.460027743385844	-3.631824750697136	-3.9839354110924363	0.0834757208435784	0.2766832247924683	-1.3350734316173072	-17.054528511849377	5.8488427608856846	1.4247315547696813	-7.87672891434701	13.642797579260797	0.9681184161722374	2.870710881222982	16.180062161405896	-8.365220453243813	-6.2655339069960165	-4.2133305636496505	-2.202534262579984	-5.2262476803023565	-0.3915378159802331	-18.33637880314289	1.9422789910041875	4.710429010296846
1.183	5.989098603334627	-2.2695778485850173	-3.3428779529852846	-1.6427683046193753	3.2643260723758143	-2.070657787095241	-20.37525294537055	5.598451127739682	2.80197432392527	-0.4181078023772633	11.257431855541421	0.9925556573114369	-1.7687960620924057	16.06393291396819	-5.028117263679166	-7.261179496326148	-1.2629527458267298	-2.1797867349954023	-2.8754719986517387	-0.7822654082808783	-19.757411450332736	4.295914321417007	7.163476438276787
1.2	6.103617331047672	-5.017094805832023	-6.053032850854253	-4.166364014772332	-0.5824625871543361	-1.8832187209186633	-18.815841410570805	8.383007425168469	1.5671399186326256	-4.575453807085637	12.918351445576782	2.8141083994970075	-0.8519884702908863	15.963373008163343	-9.783663800135335	-8.128855777047303	-1.5382232126698772	0.43033694421706314	-1.9408495943154913	2.3647408465935893	-15.734233373242624	3.0943867790254957	2.326690502863048
